<svg data-v-0dd9719b="" version="1.0" xmlns="http://www.w3.org/2000/svg" xmlns:xlink="http://www.w3.org/1999/xlink" width="100%" height="100%" viewBox="0 0 340.000000 250.000000" preserveAspectRatio="xMidYMid meet" color-interpolation-filters="sRGB" style="margin: auto;"> <rect data-v-0dd9719b="" x="0" y="0" width="100%" height="100%" fill="#ffffff" fill-opacity="1" class="background"></rect> <rect data-v-0dd9719b="" x="0" y="0" width="100%" height="100%" fill="url(#watermark)" fill-opacity="1" class="watermarklayer"></rect> <g data-v-0dd9719b="" fill="#303947" class="icon-text-wrapper icon-svg-group iconsvg" transform="translate(63.39892578125,93.94311904907227)"><g fill="#fc4349" class="iconsvg-imagesvg icon_container" transform="translate(0,0)"><rect fill="#303947" fill-opacity="0" stroke-width="2" x="0" y="0" width="62.113761467889915" height="62.113761467889915" class="image-rect"></rect> <svg viewBox="0 0 60 60" x="0" y="0" width="62.113761467889915" height="62.113761467889915" class="image-svg-svg bn" style="overflow: visible;"><g hollow-target="iconBnOutline"><g mask="url(#af684055-c242-4ad3-8bc7-373c559c55b3)"><svg fill="#000000" xmlns="http://www.w3.org/2000/svg" xmlns:xlink="http://www.w3.org/1999/xlink" version="1.1" x="0" y="0" viewBox="5 5 90 90" enable-background="new 0 0 100 100" xml:space="preserve" style="overflow: visible;" width="60" height="60" filtersec="colorsf6670798683" filter="url(#1-7rJSEh6xufYgIL97Dv5)"><g transform="scale(1, 1) skewX(0)"><path d="M75.921,5H24.305C13.752,5,5,13.752,5,24.305v51.616C5,86.472,13.752,95,24.305,95h51.616C86.472,95,95,86.472,95,75.921  V24.305C95,13.752,86.472,5,75.921,5z"></path></g><defs><filter id="1-7rJSEh6xufYgIL97Dv5"><feColorMatrix type="matrix" values="0 0 0 0 0.984375  0 0 0 0 0.26171875  0 0 0 0 0.28515625  0 0 0 1 0"></feColorMatrix></filter></defs></svg></g> <g filter="url(#colors494367098)"><svg xmlns="http://www.w3.org/2000/svg" xmlns:xlink="http://www.w3.org/1999/xlink" viewBox="0 0 39.24 58.03200000000001" width="33" height="33" x="13.5" y="13.5" class="image-svg-letter"><path transform="translate(-2.3040000000000003 51.76800000000001)" d="M18.00 6.26Q12.74 6.26 9.22 3.74Q5.69 1.22 4.00-2.81Q2.30-6.84 2.30-11.52L2.30-11.52Q2.30-20.81 6.88-30.20Q11.45-39.60 18.58-45.68Q25.70-51.77 32.90-51.77L32.90-51.77Q36.29-51.77 38.34-50.18Q40.39-48.60 40.39-45.22L40.39-45.22Q40.39-42.34 39.06-38.59Q37.73-34.85 35.68-32.22Q33.62-29.59 31.54-29.59L31.54-29.59Q29.74-29.59 28.58-31.82L28.58-31.82Q31.32-34.85 33.88-39.02Q36.43-43.20 36.43-45.79L36.43-45.79Q36.43-48.60 33.19-48.60L33.19-48.60Q28.15-48.60 22.50-42.48Q16.85-36.36 13.07-27.43Q9.29-18.50 9.29-10.87L9.29-10.87Q9.29-5.11 11.88-1.15Q14.47 2.81 19.73 2.81L19.73 2.81Q23.47 2.81 27.36 0.68Q31.25-1.44 34.49-4.97Q37.73-8.50 39.67-12.60L39.67-12.60L41.54-11.38Q37.44-3.60 31.36 1.33Q25.27 6.26 18.00 6.26L18.00 6.26Z"></path></svg></g></g><mask id="af684055-c242-4ad3-8bc7-373c559c55b3"><g fill="white"><svg xmlns="http://www.w3.org/2000/svg" xmlns:xlink="http://www.w3.org/1999/xlink" version="1.1" x="0" y="0" viewBox="5 5 90 90" enable-background="new 0 0 100 100" xml:space="preserve" style="overflow: visible;" width="60" height="60" filtersec="colorsf6670798683"><g transform="scale(1, 1) skewX(0)"><path d="M75.921,5H24.305C13.752,5,5,13.752,5,24.305v51.616C5,86.472,13.752,95,24.305,95h51.616C86.472,95,95,86.472,95,75.921  V24.305C95,13.752,86.472,5,75.921,5z"></path></g><defs></defs></svg></g> <g fill="black" filter="url(#11324785-b0f7-4ea5-8a1f-c263a30a4b40)"><svg xmlns="http://www.w3.org/2000/svg" xmlns:xlink="http://www.w3.org/1999/xlink" viewBox="0 0 39.24 58.03200000000001" width="33" height="33" x="13.5" y="13.5" class="image-svg-letter"><path transform="translate(-2.3040000000000003 51.76800000000001)" d="M18.00 6.26Q12.74 6.26 9.22 3.74Q5.69 1.22 4.00-2.81Q2.30-6.84 2.30-11.52L2.30-11.52Q2.30-20.81 6.88-30.20Q11.45-39.60 18.58-45.68Q25.70-51.77 32.90-51.77L32.90-51.77Q36.29-51.77 38.34-50.18Q40.39-48.60 40.39-45.22L40.39-45.22Q40.39-42.34 39.06-38.59Q37.73-34.85 35.68-32.22Q33.62-29.59 31.54-29.59L31.54-29.59Q29.74-29.59 28.58-31.82L28.58-31.82Q31.32-34.85 33.88-39.02Q36.43-43.20 36.43-45.79L36.43-45.79Q36.43-48.60 33.19-48.60L33.19-48.60Q28.15-48.60 22.50-42.48Q16.85-36.36 13.07-27.43Q9.29-18.50 9.29-10.87L9.29-10.87Q9.29-5.11 11.88-1.15Q14.47 2.81 19.73 2.81L19.73 2.81Q23.47 2.81 27.36 0.68Q31.25-1.44 34.49-4.97Q37.73-8.50 39.67-12.60L39.67-12.60L41.54-11.38Q37.44-3.60 31.36 1.33Q25.27 6.26 18.00 6.26L18.00 6.26Z"></path></svg></g><defs><filter id="11324785-b0f7-4ea5-8a1f-c263a30a4b40"><feGaussianBlur in="SourceGraphic" stdDeviation="1.26"></feGaussianBlur><feComponentTransfer><feFuncA type="discrete" tableValues="0 1 1 1 1 1 1 1 1 1 1 1 1 1 0"></feFuncA></feComponentTransfer></filter></defs></mask></svg> <defs><filter id="colors494367098"><feColorMatrix type="matrix" values="0 0 0 0 0.1875  0 0 0 0 0.22265625  0 0 0 0 0.27734375  0 0 0 1 0" class="icon-fecolormatrix"></feColorMatrix></filter> <filter id="colorsf6670798683"><feColorMatrix type="matrix" values="0 0 0 0 0.99609375  0 0 0 0 0.99609375  0 0 0 0 0.99609375  0 0 0 1 0" class="icon-fecolormatrix"></feColorMatrix></filter> <filter id="colorsb8513935206"><feColorMatrix type="matrix" values="0 0 0 0 0  0 0 0 0 0  0 0 0 0 0  0 0 0 1 0" class="icon-fecolormatrix"></feColorMatrix></filter></defs></g> <g transform="translate(69.11376190185547,7.435007095336914)"><g data-gra="path-name" fill-rule="" class="tp-name iconsvg-namesvg" transform="translate(0,0)"><g transform="scale(1)"><g><path d="M4.81 1.66Q3.96 3.15 2.77 2.15L2.77 2.15Q1.66 1.26 2.48-0.07L2.48-0.07Q5.03-4.92 5.03-14.36L5.03-14.36 5.03-22.53Q5.03-23.49 5.62-24.09 6.22-24.68 7.18-24.68L7.18-24.68 20.31-24.68Q20.2-26.23 20.13-29.45L20.13-29.45Q20.09-30.89 21.5-30.89L21.5-30.89Q22.9-30.89 22.9-29.45L22.9-29.45Q22.98-26.27 23.05-24.68L23.05-24.68 33.56-24.68Q34.89-24.68 34.89-23.35L34.89-23.35Q34.89-21.98 33.56-21.98L33.56-21.98 23.24-21.98Q23.83-14.1 25.23-9.14L25.23-9.14Q27.79-12.88 29.49-17.76L29.49-17.76Q29.97-19.13 31.26-18.8L31.26-18.8Q32.67-18.43 32.15-16.95L32.15-16.95Q29.97-10.84 26.23-5.92L26.23-5.92Q28.42-0.18 31.15-0.18L31.15-0.18Q32.19-0.18 32.6-3.55L32.6-3.55Q32.71-4.85 33.08-5.59L33.08-5.59Q33.56-6.59 34.34-6.1L34.34-6.1Q34.78-5.85 34.93-4.85L34.93-4.85Q35.04-4.11 34.96-3.33L34.96-3.33Q34.56 0 33.63 1.29L33.63 1.29Q32.74 2.55 30.93 2.55L30.93 2.55Q26.9 2.55 24.2-3.51L24.2-3.51Q21.31-0.37 17.87 1.89L17.87 1.89Q16.69 2.63 15.84 1.7L15.84 1.7Q14.69 0.44 16.32-0.52L16.32-0.52Q20.13-2.89 23.13-6.4L23.13-6.4Q21.2-12.47 20.42-21.98L20.42-21.98 8.58-21.98Q7.81-21.98 7.81-21.2L7.81-21.2 7.81-17.17 16.06-17.17Q17.13-17.17 17.13-16.09L17.13-16.09 17.13-15.98Q16.98-9.58 16.76-7.07L16.76-7.07Q16.54-4.33 15.98-3.63L15.98-3.63Q15.28-2.7 13.76-2.55L13.76-2.55Q12.47-2.48 11.1-2.52L11.1-2.52Q9.43-2.55 9.18-4L9.18-4 9.14-4.03Q8.66-5.14 10.17-5.03L10.17-5.03Q11.21-4.96 12.54-4.96L12.54-4.96Q13.36-4.96 13.62-5.36L13.62-5.36Q13.99-5.73 14.13-7.47L14.13-7.47Q14.32-9.1 14.43-13.1L14.43-13.1Q14.47-13.99 14.28-14.32L14.28-14.32Q14.1-14.61 13.69-14.61L13.69-14.61 7.81-14.61 7.81-14.32Q7.81-3.88 4.81 1.66L4.81 1.66ZM32.08-25.64Q31.23-24.68 30.38-25.42L30.38-25.42Q29.71-25.97 28.3-26.9L28.3-26.9Q27.71-27.34 26.42-28.16L26.42-28.16Q26.05-28.38 25.86-28.49L25.86-28.49Q24.72-29.16 25.68-30.12L25.68-30.12Q26.34-30.78 27.16-30.38L27.16-30.38Q30.23-28.71 32.08-27.23L32.08-27.23Q32.56-26.86 32.52-26.49L32.52-26.49Q32.52-26.12 32.08-25.64L32.08-25.64ZM60.57 2.85L60.57 2.85Q59.24 2.85 59.24 1.52L59.24 1.52 59.24-26.71Q59.24-27.68 59.83-28.27 60.42-28.86 61.38-28.86L61.38-28.86 69.82-28.86Q70.97-28.86 71.41-28.18 71.85-27.49 71.41-26.27L71.41-26.27Q69.97-22.35 67.04-16.58L67.04-16.58Q71.89-12.25 71.89-7.62L71.89-7.62Q71.97-4.03 70-2.81L70-2.81Q69.08-2.15 67.56-1.96L67.56-1.96Q66.49-1.85 65.49-1.89L65.49-1.89Q64.16-1.96 63.83-3L63.83-3Q63.34-4.63 65.49-4.51L65.49-4.51Q66.16-4.51 66.45-4.55L66.45-4.55Q67.49-4.63 68.19-5L68.19-5Q69.3-5.62 69.23-7.88L69.23-7.88Q69.23-11.17 66.16-14.43L66.16-14.43Q64.27-16.21 65.05-17.83L65.05-17.83Q67.16-22.24 68.71-26.23L68.71-26.23 62.68-26.23Q61.9-26.23 61.9-25.46L61.9-25.46 61.9 1.52Q61.9 2.85 60.57 2.85ZM53.91 0.48L44.84 0.48Q43.88 0.48 43.29-0.11 42.7-0.7 42.7-1.66L42.7-1.66 42.7-10.03Q42.07-9.58 41.03-8.95L41.03-8.95Q39.81-8.25 39.03-9.29L39.03-9.29Q38.11-10.51 39.59-11.29L39.59-11.29Q43.99-13.76 47.58-17.35L47.58-17.35 40.15-17.35Q38.92-17.35 38.92-18.57 38.92-19.79 40.15-19.79L40.15-19.79 46.18-19.79 46.18-24.23 41.77-24.23Q40.55-24.23 40.55-25.46 40.55-26.68 41.77-26.68L41.77-26.68 46.18-26.68 46.18-29.38Q46.18-30.64 47.47-30.64L47.47-30.64Q48.73-30.64 48.73-29.38L48.73-29.38 48.73-26.68 51.36-26.68Q52.24-26.68 52.76-26.16 53.28-25.64 53.28-24.75L53.28-24.75 53.28-24.64Q54.28-26.23 55.35-28.6L55.35-28.6Q55.83-29.64 56.94-29.3L56.94-29.3Q58.27-28.9 57.72-27.64L57.72-27.64Q55.83-23.57 52.98-19.79L52.98-19.79 56.46-19.79Q57.68-19.79 57.68-18.57 57.68-17.35 56.46-17.35L56.46-17.35 50.99-17.35Q49.21-15.24 47.51-13.76L47.51-13.76 53.91-13.76Q54.87-13.76 55.46-13.17 56.05-12.58 56.05-11.62L56.05-11.62 56.05-1.66Q56.05-0.7 55.46-0.11 54.87 0.48 53.91 0.48L53.91 0.48ZM46.03-1.81L46.03-1.81 52.69-1.81Q53.47-1.81 53.47-2.59L53.47-2.59 53.47-5.7 45.25-5.7 45.25-2.59Q45.25-1.81 46.03-1.81ZM45.25-11.51L45.25-7.92 53.47-7.92 53.47-10.73Q53.47-11.51 52.69-11.51L52.69-11.51 45.25-11.51ZM48.73-24.23L48.73-19.79 49.84-19.79Q51.84-22.35 53.02-24.23L53.02-24.23 48.73-24.23ZM91.54 2.4Q90.02 2.77 89.39 1.74L89.39 1.74Q88.54 0.3 90.91-0.26L90.91-0.26Q96.09-1.66 99.33-4.42 102.56-7.18 104.16-11.54L104.16-11.54Q104.6-12.88 105.91-12.54 107.23-12.21 106.78-10.77L106.78-10.77Q104.97-5.66 101.27-2.48L101.27-2.48Q97.53 0.7 91.54 2.4L91.54 2.4ZM83.4 2.74L83.4 2.74Q82.07 2.74 82.07 1.44L82.07 1.44 82.07-13.62Q79.92-8.32 77.7-5.22L77.7-5.22Q77.14-4.48 76.76-4.55 76.37-4.63 75.92-5.48L75.92-5.48Q75.63-6.03 75.67-6.36L75.67-6.36Q75.67-6.73 76.03-7.18L76.03-7.18Q77.59-9.18 79.14-12.14 80.7-15.1 81.7-18.02L81.7-18.02 77.37-18.02Q76.07-18.02 76.07-19.31 76.07-20.61 77.37-20.61L77.37-20.61 82.07-20.61 82.07-26.23Q80.11-25.83 77.74-25.46L77.74-25.46Q76.7-25.31 76.33-26.27L76.33-26.27Q75.89-27.45 77.26-27.68L77.26-27.68Q82.95-28.67 86.65-30.08L86.65-30.08Q87.14-30.3 87.5-30.15L87.5-30.15Q87.8-30.04 88.21-29.6L88.21-29.6Q89.36-28.34 87.88-27.79L87.88-27.79Q86.06-27.2 84.69-26.86L84.69-26.86 84.69-20.61 87.99-20.61Q89.28-20.61 89.28-19.31 89.28-18.02 87.99-18.02L87.99-18.02 84.69-18.02 84.69-15.76Q86.21-14.47 89.13-11.29L89.13-11.29Q89.5-10.88 89.47-10.54L89.47-10.54Q89.43-10.32 89.02-9.8L89.02-9.8Q88.47-9.1 88.1-9.05 87.73-8.99 87.28-9.69L87.28-9.69Q85.84-11.69 84.69-13.1L84.69-13.1 84.69 1.44Q84.69 2.74 83.4 2.74ZM96.16-8.36L96.16-8.36Q94.46-8.36 94.13-9.4L94.13-9.4Q93.83-10.21 94.42-10.62L94.42-10.62Q94.91-10.95 95.9-10.91L95.9-10.91Q97.09-10.91 97.31-10.95L97.31-10.95Q97.98-10.95 97.98-11.58L97.98-11.58 97.98-29.6Q97.98-30.93 99.31-30.93L99.31-30.93Q100.64-30.93 100.64-29.6L100.64-29.6 100.64-11.54Q100.64-10.43 100.38-9.84L100.38-9.84Q100.08-9.21 99.34-8.84L99.34-8.84Q98.35-8.4 96.16-8.36ZM90.76-13.02Q90.35-12.91 89.71-13.28 89.06-13.65 88.97-14.04 88.87-14.43 89.28-15.06L89.28-15.06Q91.09-18.2 92.24-23.42L92.24-23.42Q92.54-24.79 93.8-24.57L93.8-24.57Q95.13-24.35 94.83-23.01L94.83-23.01Q94.16-20.09 93.35-17.91L93.35-17.91Q92.61-15.72 91.54-13.76L91.54-13.76Q91.17-13.13 90.76-13.02ZM108.41-14.02Q107.04-13.58 106.78-14.76L106.78-14.76Q106.34-16.61 105.49-18.76L105.49-18.76Q104.45-21.42 103.56-23.09L103.56-23.09Q102.93-24.23 104.27-24.68L104.27-24.68Q105.27-25.01 105.78-24.09L105.78-24.09Q108.26-19.68 109.3-15.35L109.3-15.35Q109.45-14.8 109.19-14.5L109.19-14.5Q109-14.24 108.41-14.02L108.41-14.02ZM115.55 2Q114.33 2.89 113.55 2.07L113.55 2.07Q112.67 1.07 114.26 0L114.26 0Q117.44-2.52 118.66-6.73L118.66-6.73Q119.44-9.51 119.44-13.84L119.44-13.84 119.44-22.87Q119.44-24.05 120.62-24.05L120.62-24.05Q121.8-24.05 121.8-22.87L121.8-22.87 121.8-13.84Q121.8-8.95 120.77-5.66L120.77-5.66Q119.29-0.92 115.55 2L115.55 2ZM126.13 1.07Q124.95 1.85 124.43 0.7L124.43 0.7 124.39 0.67Q123.73-0.63 123.28-1.33L123.28-1.33Q122.62-2.55 121.69-3.81L121.69-3.81Q121.06-4.77 122.06-5.4L122.06-5.4Q123.03-5.96 123.65-5.11L123.65-5.11Q123.73-4.96 123.91-4.7L123.91-4.7Q125.91-1.66 126.61-0.37L126.61-0.37Q126.87 0.11 126.76 0.44L126.76 0.44Q126.65 0.7 126.13 1.07L126.13 1.07ZM142.97 1.07L131.05 1.07Q130.09 1.07 129.5 0.48 128.91-0.11 128.91-1.07L128.91-1.07 128.91-11.17Q128.91-12.14 129.5-12.73 130.09-13.32 131.05-13.32L131.05-13.32 134.75-13.32 134.75-29.67Q134.75-30.93 136.05-30.93L136.05-30.93Q137.31-30.93 137.31-29.67L137.31-29.67 137.31-23.57 144.97-23.57Q146.22-23.57 146.22-22.31L146.22-22.31Q146.22-21.02 144.97-21.02L144.97-21.02 137.31-21.02 137.31-13.32 142.97-13.32Q143.93-13.32 144.52-12.73 145.11-12.14 145.11-11.17L145.11-11.17 145.11-1.07Q145.11-0.11 144.52 0.48 143.93 1.07 142.97 1.07L142.97 1.07ZM132.13-1.48L132.13-1.48 141.78-1.48Q142.56-1.48 142.56-2.26L142.56-2.26 142.56-9.99Q142.56-10.77 141.78-10.77L141.78-10.77 132.13-10.77Q131.35-10.77 131.35-9.99L131.35-9.99 131.35-2.26Q131.35-1.48 132.13-1.48ZM115.59-6.59L115.59-6.59Q114.44-6.59 114.44-7.7L114.44-7.7 114.44-26.79Q114.44-27.75 115.03-28.34 115.63-28.93 116.59-28.93L116.59-28.93 124.8-28.93Q125.76-28.93 126.36-28.34 126.95-27.75 126.95-26.79L126.95-26.79 126.95-7.84Q126.95-6.66 125.76-6.66L125.76-6.66Q124.58-6.66 124.58-7.84L124.58-7.84 124.58-25.68Q124.58-26.45 123.8-26.45L123.8-26.45 117.47-26.45Q116.7-26.45 116.7-25.68L116.7-25.68 116.7-7.7Q116.7-6.59 115.59-6.59Z" transform="translate(-2.131606340408325, 30.93000030517578)"></path></g> <!----> <!----> <!----> <!----> <!----> <!----> <!----></g></g> <g data-gra="path-slogan" fill-rule="" class="tp-slogan iconsvg-slogansvg" fill="#303947" transform="translate(5,40.779998779296875)"><rect x="0" height="1" y="3.2300000190734863" width="1.5441970825195312"></rect> <rect height="1" y="3.2300000190734863" width="1.5441970825195312" x="132.54419708251953"></rect> <g transform="translate(4.544197082519531,0)"><g transform="scale(1)"><path d="M6.72-5.04L6.72-5.04L5.78-5.04Q5.43-6.48 3.79-6.52L3.79-6.52Q1.52-6.41 1.45-3.63L1.45-3.63Q1.45-0.66 3.83-0.66L3.83-0.66Q5.47-0.70 5.86-2.66L5.86-2.66L6.80-2.66Q6.37 0.04 3.63 0.12L3.63 0.12Q0.51 0 0.43-3.59L0.43-3.59Q0.59-7.19 3.79-7.34L3.79-7.34Q6.33-7.27 6.72-5.04ZM8.91-4.22L12.66-4.22L12.66-7.15L13.63-7.15L13.63 0L12.66 0L12.66-3.32L8.91-3.32L8.91 0L7.93 0L7.93-7.15L8.91-7.15L8.91-4.22ZM16.21-0.86L20.51-0.86L20.51 0L15.23 0L15.23-7.15L20.43-7.15L20.43-6.33L16.21-6.33L16.21-4.10L20.12-4.10L20.12-3.24L16.21-3.24L16.21-0.86ZM22.93-7.15L26.52-1.37L26.52-7.15L27.46-7.15L27.46 0L26.37 0L22.73-5.78L22.70-5.78L22.70 0L21.76 0L21.76-7.15L22.93-7.15ZM34.30-3.01L32.11-3.01L32.11-3.83L35.23-3.83L35.23 0L34.61 0L34.38-0.90Q33.55 0.08 32.03 0.12L32.03 0.12Q30.59 0.12 29.80-0.63L29.80-0.63Q28.63-1.72 28.67-3.63L28.67-3.63Q28.95-7.19 32.07-7.34L32.07-7.34Q34.73-7.19 35.12-5L35.12-5L34.18-5Q33.79-6.48 32.03-6.52L32.03-6.52Q29.80-6.37 29.69-3.59L29.69-3.59Q29.69-0.63 32.07-0.63L32.07-0.63Q32.93-0.63 33.55-1.09L33.55-1.09Q34.34-1.72 34.30-3.01L34.30-3.01ZM39.65 0L36.76 0L36.76-7.15L39.69-7.15Q42.58-6.99 42.70-3.67L42.70-3.67Q42.54-0.08 39.65 0L39.65 0ZM39.53-6.37L37.73-6.37L37.73-0.82L39.61-0.82Q41.64-0.94 41.72-3.59L41.72-3.59Q41.68-6.29 39.53-6.37L39.53-6.37ZM48.63-2.66L48.63-7.15L49.61-7.15L49.61-2.54Q49.49 0.04 46.68 0.12L46.68 0.12Q44.06 0.04 43.95-2.38L43.95-2.38L43.95-7.15L44.92-7.15L44.92-2.66Q44.96-0.70 46.72-0.66L46.72-0.66Q48.63-0.70 48.63-2.66L48.63-2.66ZM54.02-7.15L55-7.15L55 0L54.02 0L54.02-7.15ZM57.81-7.15L61.41-1.37L61.41-7.15L62.34-7.15L62.34 0L61.25 0L57.62-5.78L57.58-5.78L57.58 0L56.64 0L56.64-7.15L57.81-7.15ZM69.06-5.08L69.06-5.08L68.16-5.08Q68.09-6.45 66.37-6.52L66.37-6.52Q64.77-6.48 64.77-5.27L64.77-5.27Q64.77-4.49 65.63-4.38L65.63-4.38L67.66-3.91Q69.26-3.52 69.26-1.95L69.26-1.95Q69.22 0.04 66.45 0.12L66.45 0.12Q64.92 0.12 64.30-0.51L64.30-0.51Q63.52-1.09 63.55-2.30L63.55-2.30L64.49-2.30Q64.53-0.66 66.45-0.63L66.45-0.63Q68.32-0.66 68.36-1.84L68.36-1.84Q68.52-2.81 66.80-3.13L66.80-3.13L65.31-3.44Q63.79-3.87 63.79-5.16L63.79-5.16Q63.91-7.27 66.29-7.34L66.29-7.34Q68.98-7.34 69.06-5.08ZM72.30-6.33L69.88-6.33L69.88-7.15L75.66-7.15L75.66-6.33L73.24-6.33L73.24 0L72.30 0L72.30-6.33ZM81.25 0L80.55-2.07L77.66-2.07L76.91 0L75.94 0L78.63-7.15L79.73-7.15L82.30 0L81.25 0ZM79.10-6.09L77.97-2.93L80.20-2.93L79.14-6.09L79.10-6.09ZM84.34-7.15L87.93-1.37L87.93-7.15L88.87-7.15L88.87 0L87.77 0L84.14-5.78L84.10-5.78L84.10 0L83.16 0L83.16-7.15L84.34-7.15ZM92.19-6.33L89.77-6.33L89.77-7.15L95.55-7.15L95.55-6.33L93.13-6.33L93.13 0L92.19 0L92.19-6.33ZM102.23-6.37L100.27-6.37L100.27-3.87L102.19-3.87Q103.67-3.87 103.67-5.16L103.67-5.16Q103.67-6.33 102.23-6.37L102.23-6.37ZM102.54-3.01L100.27-3.01L100.27 0L99.30 0L99.30-7.15L102.54-7.15Q104.57-7.07 104.65-5.16L104.65-5.16Q104.53-3.09 102.54-3.01L102.54-3.01ZM111.48-3.55L111.48-3.55Q111.33-6.37 108.98-6.52L108.98-6.52Q106.60-6.41 106.48-3.55L106.48-3.55Q106.60-0.78 108.98-0.66L108.98-0.66Q111.33-0.82 111.48-3.55ZM112.46-3.55L112.46-3.55Q112.23 0 108.98 0.12L108.98 0.12Q105.70 0 105.47-3.55L105.47-3.55Q105.66-7.27 108.98-7.34L108.98-7.34Q112.23-7.23 112.46-3.55ZM118.83-5.08L118.83-5.08L117.93-5.08Q117.85-6.45 116.13-6.52L116.13-6.52Q114.53-6.48 114.53-5.27L114.53-5.27Q114.53-4.49 115.39-4.38L115.39-4.38L117.42-3.91Q119.02-3.52 119.02-1.95L119.02-1.95Q118.98 0.04 116.21 0.12L116.21 0.12Q114.69 0.12 114.06-0.51L114.06-0.51Q113.28-1.09 113.32-2.30L113.32-2.30L114.26-2.30Q114.30-0.66 116.21-0.63L116.21-0.63Q118.09-0.66 118.13-1.84L118.13-1.84Q118.28-2.81 116.56-3.13L116.56-3.13L115.08-3.44Q113.55-3.87 113.55-5.16L113.55-5.16Q113.67-7.27 116.05-7.34L116.05-7.34Q118.75-7.34 118.83-5.08ZM122.07-6.33L119.65-6.33L119.65-7.15L125.43-7.15L125.43-6.33L123.01-6.33L123.01 0L122.07 0L122.07-6.33Z" transform="translate(-0.4296875, 7.34375)"></path></g></g></g></g></g><defs v-gra="od"></defs></svg>